<svg width="401" height="45" viewBox="0 0 401 45" fill="none" xmlns="http://www.w3.org/2000/svg">
<path d="M0.9375 44.25C0.770833 44.0833 0.6875 43.7292 0.6875 43.1875C0.6875 42.3542 0.770833 41.9375 0.9375 41.9375C1.27083 41.9375 1.75 41.875 2.375 41.75C3 41.625 3.58333 41.4583 4.125 41.25C4.66667 41 4.97917 40.7708 5.0625 40.5625C5.3125 39.6042 5.4375 37.7708 5.4375 35.0625V11.4375C5.4375 9.10417 5.3125 7.47917 5.0625 6.5625C4.97917 6.3125 4.64583 6.0625 4.0625 5.8125C3.52083 5.52083 2.9375 5.29167 2.3125 5.125C1.6875 4.91667 1.20833 4.8125 0.875 4.8125C0.708333 4.8125 0.625 4.4375 0.625 3.6875C0.625 3.02083 0.6875 2.625 0.8125 2.5C2.47917 2.58333 4.0625 2.66667 5.5625 2.75C7.10417 2.79167 8.58333 2.8125 10 2.8125C11.8333 2.8125 15.0625 2.75 19.6875 2.625C22.0208 2.58333 24.0625 2.5625 25.8125 2.5625C27.5625 2.52083 29.0208 2.5 30.1875 2.5C30.2292 2.70833 30.3958 3.58333 30.6875 5.125C30.9792 6.66667 31.4167 8.875 32 11.75C31.7917 11.9583 31.3125 12.0625 30.5625 12.0625C30.1042 12.0625 29.8125 11.9167 29.6875 11.625C29.1875 10.5417 28.4375 9.58333 27.4375 8.75C26.4792 7.875 25.4167 7.1875 24.25 6.6875C23.125 6.14583 22.0208 5.875 20.9375 5.875H18.5625C15.8958 5.875 14.5417 6.14583 14.5 6.6875C14.4167 7.1875 14.3333 7.85417 14.25 8.6875C14.2083 9.47917 14.1875 10.4375 14.1875 11.5625V21.1875C14.1875 21.4375 15.0833 21.5625 16.875 21.5625H20.1875C22.8125 21.5625 24.2292 21.4792 24.4375 21.3125C24.6458 21.1042 24.8125 20.5 24.9375 19.5C25.0208 18.8333 25.1458 18.2292 25.3125 17.6875C25.3542 17.3958 25.6667 17.25 26.25 17.25C26.9583 17.25 27.4167 17.3542 27.625 17.5625V29.375C27.4583 29.5417 27.0208 29.625 26.3125 29.625C25.7708 29.625 25.4375 29.4583 25.3125 29.125C24.8125 27.5 24.4792 26.5 24.3125 26.125C24.1458 25.8333 24.0208 25.7083 23.9375 25.75C23.8958 25.75 23.7708 25.6667 23.5625 25.5C22.9792 25.1667 21.3542 25 18.6875 25C15.6875 25 14.1875 25.1875 14.1875 25.5625V35.1875C14.1875 37.1458 14.3542 38.625 14.6875 39.625C14.8542 40.2917 16.2708 40.625 18.9375 40.625H20.5625C23.1458 40.625 25.4792 40.0833 27.5625 39C28.2708 38.625 29.0625 37.9167 29.9375 36.875C30.8542 35.8333 31.5625 34.6667 32.0625 33.375C32.1458 33.125 32.4375 33 32.9375 33C33.9375 33 34.5625 33.125 34.8125 33.375C32.7292 39.125 31.6042 42.7083 31.4375 44.125C30.3958 44.125 29.0208 44.1042 27.3125 44.0625C25.6458 44.0625 23.6458 44.0417 21.3125 44C19.0208 43.9583 16.9375 43.9167 15.0625 43.875C13.1875 43.7917 11.5208 43.7917 10.0625 43.875L0.9375 44.25ZM38.3125 44.25C38.1458 44.0833 38.0625 43.6458 38.0625 42.9375C38.0625 42.2708 38.1458 41.9375 38.3125 41.9375C38.6458 41.9375 39.125 41.8542 39.75 41.6875C40.375 41.4792 40.9583 41.25 41.5 41C42.0417 40.75 42.3333 40.5417 42.375 40.375C42.6667 39.2083 42.8125 37.625 42.8125 35.625V27.0625C42.8125 24.7292 42.4375 23.1667 41.6875 22.375C41.3542 21.9583 40.8958 21.6667 40.3125 21.5C39.7708 21.3333 39.2917 21.2292 38.875 21.1875C38.4583 21.1042 38.25 21.0208 38.25 20.9375C38.25 19.4792 38.3542 18.75 38.5625 18.75C39.8125 18.6667 41.3333 18.4167 43.125 18C44.9167 17.5417 47.0208 17.0833 49.4375 16.625L50.6875 16.3125C50.8958 16.3125 51.1042 16.4583 51.3125 16.75C51.5625 17 51.6667 17.2083 51.625 17.375L51.375 19.3125C51.375 19.5208 51.3958 19.6458 51.4375 19.6875C51.5208 19.6875 51.6667 19.5833 51.875 19.375C54.1667 17.2083 57.0625 16.125 60.5625 16.125C63.5625 16.125 65.7708 17.5625 67.1875 20.4375C69.7708 17.6042 73.5208 16.1667 78.4375 16.125C80.8542 16.125 82.8125 17.1458 84.3125 19.1875C85.8542 21.2292 86.625 24.3333 86.625 28.5V34.6875C86.625 37.4375 86.7708 39.3333 87.0625 40.375C87.1458 40.5417 87.4375 40.75 87.9375 41C88.4792 41.25 89.0417 41.4792 89.625 41.6875C90.2083 41.8542 90.625 41.9375 90.875 41.9375C90.9583 41.9375 91.0208 42.1042 91.0625 42.4375C91.1042 42.7708 91.125 43.125 91.125 43.5C91.125 43.875 91.0833 44.125 91 44.25C90.75 44.25 90.2708 44.2083 89.5625 44.125C88.8542 44.0833 88.0417 44.0417 87.125 44C86.25 43.9167 85.3958 43.8542 84.5625 43.8125C83.7292 43.7708 83.0625 43.75 82.5625 43.75C81.8958 43.75 80.9583 43.7917 79.75 43.875C78.5417 43.9583 77.375 44.0208 76.25 44.0625C75.1667 44.1458 74.4583 44.2083 74.125 44.25C73.9583 44.0833 73.875 43.6458 73.875 42.9375C73.875 42.2708 73.9583 41.9375 74.125 41.9375C74.4583 41.9375 74.9167 41.8542 75.5 41.6875C76.125 41.4792 76.6875 41.25 77.1875 41C77.7292 40.75 78.0208 40.5417 78.0625 40.375C78.3542 39.2083 78.5 37.625 78.5 35.625V30C78.5 27.125 78.0625 24.9792 77.1875 23.5625C76.3542 22.1458 75 21.4375 73.125 21.4375C71.9583 21.4375 70.9792 21.6458 70.1875 22.0625C69.3958 22.4792 68.875 23.2292 68.625 24.3125C68.625 24.6875 68.6458 25.1875 68.6875 25.8125C68.7292 26.3958 68.75 27.2917 68.75 28.5V34.6875C68.75 37.4375 68.8958 39.3333 69.1875 40.375C69.2708 40.5417 69.5625 40.75 70.0625 41C70.6042 41.25 71.1667 41.4792 71.75 41.6875C72.3333 41.8542 72.75 41.9375 73 41.9375C73.0833 41.9375 73.1458 42.1042 73.1875 42.4375C73.2292 42.7708 73.25 43.125 73.25 43.5C73.25 43.875 73.2083 44.125 73.125 44.25C72.875 44.25 72.3958 44.2083 71.6875 44.125C70.9792 44.0833 70.1667 44.0417 69.25 44C68.375 43.9167 67.5208 43.8542 66.6875 43.8125C65.8542 43.7708 65.1875 43.75 64.6875 43.75C64.0208 43.75 63.0833 43.7917 61.875 43.875C60.6667 43.9583 59.5 44.0208 58.375 44.0625C57.2917 44.1458 56.5833 44.2083 56.25 44.25C56.0833 44.0833 56 43.6458 56 42.9375C56 42.2708 56.0833 41.9375 56.25 41.9375C56.5833 41.9375 57.0417 41.8542 57.625 41.6875C58.25 41.4792 58.8125 41.25 59.3125 41C59.8542 40.75 60.1458 40.5417 60.1875 40.375C60.4792 39.2083 60.625 37.625 60.625 35.625V30C60.625 26.9167 60.1875 24.7292 59.3125 23.4375C58.4792 22.1042 57.125 21.4375 55.25 21.4375C53.9583 21.4375 52.9167 21.6875 52.125 22.1875C51.3333 22.6458 50.9375 23.3125 50.9375 24.1875V34.6875C50.9375 37.4375 51.0833 39.3333 51.375 40.375C51.4583 40.5417 51.75 40.75 52.25 41C52.75 41.25 53.2917 41.4792 53.875 41.6875C54.4583 41.8542 54.8542 41.9375 55.0625 41.9375C55.1458 41.9375 55.2083 42.1042 55.25 42.4375C55.2917 42.7708 55.3125 43.125 55.3125 43.5C55.3125 43.875 55.2708 44.125 55.1875 44.25C54.8542 44.2083 54.1458 44.1458 53.0625 44.0625C51.9792 44.0208 50.8333 43.9583 49.625 43.875C48.4583 43.7917 47.5417 43.75 46.875 43.75C46.375 43.75 45.6875 43.7708 44.8125 43.8125C43.9792 43.8542 43.1042 43.9167 42.1875 44C41.2708 44.0417 40.4583 44.0833 39.75 44.125C39.0417 44.2083 38.5625 44.25 38.3125 44.25ZM108.188 44.4375C105.479 44.4375 103 43.8125 100.75 42.5625C98.5417 41.2708 96.7708 39.5625 95.4375 37.4375C94.1458 35.2708 93.5 32.875 93.5 30.25C93.5 27.5833 94.1458 25.1875 95.4375 23.0625C96.7708 20.9375 98.5417 19.25 100.75 18C103 16.7083 105.479 16.0625 108.188 16.0625C110.938 16.0625 113.417 16.7083 115.625 18C117.833 19.25 119.583 20.9375 120.875 23.0625C122.208 25.1875 122.875 27.5833 122.875 30.25C122.875 32.875 122.229 35.2708 120.938 37.4375C119.646 39.5625 117.875 41.2708 115.625 42.5625C113.417 43.8125 110.938 44.4375 108.188 44.4375ZM108.812 41C109.979 41 110.938 40.6042 111.688 39.8125C112.438 39.0208 112.979 37.9792 113.312 36.6875C113.688 35.3542 113.875 33.9375 113.875 32.4375C113.875 23.8125 111.688 19.5 107.312 19.5C106.146 19.5 105.188 19.9167 104.438 20.75C103.729 21.5833 103.208 22.6667 102.875 24C102.542 25.3333 102.375 26.7708 102.375 28.3125C102.375 36.7708 104.521 41 108.812 41ZM146.688 44.625C146.104 44.625 145.625 44.3542 145.25 43.8125L132.438 12.125L130.375 7C130.208 6.54167 129.833 6.16667 129.25 5.875C128.667 5.58333 128.042 5.35417 127.375 5.1875C126.75 5.02083 126.229 4.9375 125.812 4.9375C125.646 4.9375 125.562 4.58333 125.562 3.875C125.562 3.20833 125.604 2.79167 125.688 2.625L129.562 2.875C130.729 2.95833 131.729 3.02083 132.562 3.0625C133.438 3.10417 134.146 3.125 134.688 3.125L144.125 2.625C144.292 2.79167 144.375 3.20833 144.375 3.875C144.375 4.58333 144.292 4.9375 144.125 4.9375C143.667 4.9375 143.104 5.02083 142.438 5.1875C141.771 5.35417 141.188 5.60417 140.688 5.9375C140.229 6.27083 140 6.6875 140 7.1875C140 7.52083 140.479 8.89583 141.438 11.3125L149.812 31.9375L158.625 11.375C159.458 9.45833 159.875 8.04167 159.875 7.125C159.875 6.5 159.438 5.97917 158.562 5.5625C157.729 5.14583 156.688 4.9375 155.438 4.9375C155.312 4.85417 155.25 4.52083 155.25 3.9375C155.25 3.39583 155.292 2.95833 155.375 2.625C157.125 2.75 158.438 2.85417 159.312 2.9375C160.188 3.02083 160.812 3.08333 161.188 3.125C161.604 3.125 161.938 3.125 162.188 3.125C162.438 3.125 162.792 3.10417 163.25 3.0625C163.708 3.02083 164.417 2.95833 165.375 2.875C166.375 2.79167 167.833 2.70833 169.75 2.625C169.917 2.79167 170 3.10417 170 3.5625C170 4.4375 169.958 4.875 169.875 4.875C169.417 4.875 168.688 5.0625 167.688 5.4375C166.688 5.77083 165.875 6.1875 165.25 6.6875C164.875 7.0625 164.083 8.58333 162.875 11.25L149.375 42.3125C149.042 43.0208 148.604 43.5833 148.062 44C147.562 44.4167 147.104 44.625 146.688 44.625ZM180.812 44.4375C178.104 44.4375 175.625 43.8125 173.375 42.5625C171.167 41.2708 169.396 39.5625 168.062 37.4375C166.771 35.2708 166.125 32.875 166.125 30.25C166.125 27.5833 166.771 25.1875 168.062 23.0625C169.396 20.9375 171.167 19.25 173.375 18C175.625 16.7083 178.104 16.0625 180.812 16.0625C183.562 16.0625 186.042 16.7083 188.25 18C190.458 19.25 192.208 20.9375 193.5 23.0625C194.833 25.1875 195.5 27.5833 195.5 30.25C195.5 32.875 194.854 35.2708 193.562 37.4375C192.271 39.5625 190.5 41.2708 188.25 42.5625C186.042 43.8125 183.562 44.4375 180.812 44.4375ZM181.438 41C182.604 41 183.562 40.6042 184.312 39.8125C185.062 39.0208 185.604 37.9792 185.938 36.6875C186.312 35.3542 186.5 33.9375 186.5 32.4375C186.5 23.8125 184.312 19.5 179.938 19.5C178.771 19.5 177.812 19.9167 177.062 20.75C176.354 21.5833 175.833 22.6667 175.5 24C175.167 25.3333 175 26.7708 175 28.3125C175 36.7708 177.146 41 181.438 41ZM199.188 44.25C199.021 44.0833 198.938 43.6875 198.938 43.0625C198.938 42.4375 199.021 42.125 199.188 42.125C199.521 42.125 199.958 42.0417 200.5 41.875C201.042 41.7083 201.562 41.5 202.062 41.25C202.562 41 202.833 40.7708 202.875 40.5625C203.167 39.3958 203.312 37.8125 203.312 35.8125V26.6875C203.312 24.3542 202.938 22.7917 202.188 22C201.854 21.5833 201.396 21.2917 200.812 21.125C200.271 20.9583 199.792 20.8542 199.375 20.8125C198.958 20.7292 198.75 20.6458 198.75 20.5625C198.75 19.3542 198.854 18.75 199.062 18.75C199.438 18.75 200.125 18.6667 201.125 18.5C202.125 18.3333 203.229 18.125 204.438 17.875C205.688 17.625 206.854 17.375 207.938 17.125C209.062 16.875 209.917 16.6667 210.5 16.5L211.188 16.3125C211.396 16.3125 211.604 16.4583 211.812 16.75C212.021 17 212.125 17.2083 212.125 17.375C211.917 19.2083 211.75 20.6458 211.625 21.6875C211.5 22.7292 211.438 23.375 211.438 23.625V34.875C211.438 37.25 211.604 39.1458 211.938 40.5625C212.021 40.7292 212.292 40.9375 212.75 41.1875C213.25 41.4375 213.771 41.6667 214.312 41.875C214.854 42.0417 215.229 42.125 215.438 42.125C215.562 42.125 215.625 42.4375 215.625 43.0625C215.667 43.6875 215.646 44.0833 215.562 44.25C215.229 44.2083 214.521 44.1458 213.438 44.0625C212.396 44.0208 211.292 43.9583 210.125 43.875C208.958 43.7917 208.042 43.75 207.375 43.75C206.708 43.75 205.792 43.7917 204.625 43.875C203.458 43.9583 202.354 44.0208 201.312 44.0625C200.271 44.1458 199.562 44.2083 199.188 44.25ZM207.062 10.125C205.771 10.125 204.667 9.6875 203.75 8.8125C202.875 7.89583 202.438 6.79167 202.438 5.5C202.438 4.20833 202.875 3.125 203.75 2.25C204.667 1.33333 205.771 0.875 207.062 0.875C208.354 0.875 209.438 1.33333 210.312 2.25C211.229 3.125 211.688 4.20833 211.688 5.5C211.688 6.79167 211.229 7.89583 210.312 8.8125C209.438 9.6875 208.354 10.125 207.062 10.125ZM233.375 44.4375C230.708 44.4375 228.312 43.7917 226.188 42.5C224.062 41.2083 222.375 39.4583 221.125 37.25C219.875 35.0417 219.25 32.5833 219.25 29.875C219.25 27.2917 219.917 24.9583 221.25 22.875C222.583 20.7917 224.375 19.1458 226.625 17.9375C228.917 16.6875 231.438 16.0625 234.188 16.0625C236.312 16.0625 238.271 16.4375 240.062 17.1875C241.854 17.8958 243.146 18.75 243.938 19.75C243.938 23.5833 242.812 25.5 240.562 25.5C238.938 25.5 237.708 24.4583 236.875 22.375C236.5 21.4167 236.021 20.7083 235.438 20.25C234.896 19.75 234.125 19.5 233.125 19.5C229.792 19.5 228.125 22.625 228.125 28.875C228.125 35.9167 230.479 39.4375 235.188 39.4375C236.604 39.4375 237.917 39.2292 239.125 38.8125C239.958 38.5625 240.604 38.3333 241.062 38.125C241.521 37.9167 241.938 37.6875 242.312 37.4375C242.729 37.1458 243.208 36.7917 243.75 36.375C244.125 36.5417 244.312 36.9375 244.312 37.5625C244.312 38.1042 244.229 38.5208 244.062 38.8125C243.812 39.4792 243.167 40.2708 242.125 41.1875C241.083 42.0625 239.792 42.8333 238.25 43.5C236.75 44.125 235.125 44.4375 233.375 44.4375ZM260.875 44.4375C258.333 44.4375 255.979 43.7917 253.812 42.5C251.688 41.2083 249.979 39.4792 248.688 37.3125C247.438 35.1458 246.812 32.7708 246.812 30.1875C246.812 27.5208 247.375 25.125 248.5 23C249.667 20.875 251.271 19.1875 253.312 17.9375C255.354 16.6875 257.708 16.0625 260.375 16.0625C263 16.0625 265.229 16.6875 267.062 17.9375C268.938 19.1458 270.354 20.6667 271.312 22.5C272.312 24.2917 272.812 26.1042 272.812 27.9375C272.812 28.8958 272.604 29.5208 272.188 29.8125C271.812 30.1042 271.042 30.25 269.875 30.25H255.75C255.5 30.25 255.375 30.3958 255.375 30.6875C255.375 32.1875 255.646 33.6042 256.188 34.9375C256.771 36.2708 257.604 37.3542 258.688 38.1875C259.812 39.0208 261.167 39.4375 262.75 39.4375C264.167 39.4375 265.479 39.2292 266.688 38.8125C267.521 38.5625 268.167 38.3333 268.625 38.125C269.083 37.9167 269.5 37.6875 269.875 37.4375C270.292 37.1458 270.771 36.7917 271.312 36.375C271.688 36.5417 271.875 36.9375 271.875 37.5625C271.875 38.1042 271.792 38.5208 271.625 38.8125C271.375 39.4792 270.708 40.25 269.625 41.125C268.583 42 267.292 42.7708 265.75 43.4375C264.25 44.1042 262.625 44.4375 260.875 44.4375ZM255.812 26.8125H263.75C264.333 26.8125 264.625 26.4167 264.625 25.625C264.625 24.0417 264.188 22.625 263.312 21.375C262.479 20.125 261.396 19.5 260.062 19.5C258.854 19.5 257.896 19.9375 257.188 20.8125C256.521 21.6458 256.042 22.5833 255.75 23.625C255.5 24.6667 255.375 25.5208 255.375 26.1875C255.375 26.6042 255.521 26.8125 255.812 26.8125ZM276.562 44.25C276.396 44.0833 276.312 43.7292 276.312 43.1875C276.312 42.3542 276.396 41.9375 276.562 41.9375C276.896 41.9375 277.375 41.875 278 41.75C278.625 41.625 279.208 41.4583 279.75 41.25C280.292 41 280.604 40.7708 280.688 40.5625C280.938 39.6042 281.062 37.7708 281.062 35.0625V11.1875C281.062 8.64583 280.896 7.08333 280.562 6.5C280.438 6.25 280.104 6.02083 279.562 5.8125C279.062 5.5625 278.542 5.35417 278 5.1875C277.458 5.02083 277.021 4.9375 276.688 4.9375C276.521 4.9375 276.438 4.58333 276.438 3.875C276.438 3.125 276.479 2.70833 276.562 2.625L285.625 3C286.042 3.04167 286.979 3.02083 288.438 2.9375C289.896 2.85417 291.875 2.75 294.375 2.625C294.5 3 294.562 3.375 294.562 3.75C294.562 4.54167 294.479 4.9375 294.312 4.9375C294.062 4.9375 293.625 5.02083 293 5.1875C292.375 5.35417 291.771 5.5625 291.188 5.8125C290.646 6.02083 290.333 6.22917 290.25 6.4375C290.083 6.97917 289.958 7.6875 289.875 8.5625C289.833 9.39583 289.812 10.3542 289.812 11.4375V35.125C289.812 37.125 289.979 38.625 290.312 39.625C290.479 40.2917 291.896 40.625 294.562 40.625H296.188C298.771 40.625 301.104 40.0833 303.188 39C303.896 38.625 304.688 37.9167 305.562 36.875C306.479 35.8333 307.188 34.6667 307.688 33.375C307.771 33.125 308.062 33 308.562 33C309.562 33 310.188 33.125 310.438 33.375C308.354 39.125 307.229 42.7083 307.062 44.125C305.896 44.125 304.375 44.1042 302.5 44.0625C300.667 44.0625 298.479 44.0417 295.938 44C293.396 43.9583 291.271 43.9167 289.562 43.875C287.896 43.8333 286.604 43.8333 285.688 43.875L276.562 44.25ZM321.312 44.4375C319.021 44.4375 317.188 43.8125 315.812 42.5625C314.479 41.2708 313.812 39.6667 313.812 37.75C313.812 36.125 314.312 34.7083 315.312 33.5C316.354 32.2917 317.646 31.3333 319.188 30.625C319.771 30.375 320.312 30.1667 320.812 30C321.312 29.7917 321.771 29.6042 322.188 29.4375C323.771 28.9375 325.042 28.5833 326 28.375C326.958 28.125 327.667 27.9167 328.125 27.75C328.5 27.625 328.688 27.3125 328.688 26.8125V24.5625C328.688 21.1458 327.646 19.4375 325.562 19.4375C323.146 19.4375 321.938 20.8333 321.938 23.625C321.938 24.5417 321.562 25.2292 320.812 25.6875C320.062 26.1042 319.229 26.3125 318.312 26.3125C316.396 26.3125 315.083 25.6875 314.375 24.4375C314.375 23.3542 314.75 22.3125 315.5 21.3125C316.292 20.3125 317.312 19.4167 318.562 18.625C319.854 17.7917 321.292 17.1458 322.875 16.6875C324.5 16.1875 326.125 15.9375 327.75 15.9375C330.667 15.9375 332.896 16.75 334.438 18.375C336.021 19.9583 336.812 22.8542 336.812 27.0625V37.1875C336.812 38.6042 337.312 39.3125 338.312 39.3125C339.062 39.3125 339.771 39.0417 340.438 38.5C340.729 38.6667 340.875 38.9792 340.875 39.4375C340.875 40.5208 340.729 41.2917 340.438 41.75C339.854 42.2917 338.896 42.875 337.562 43.5C336.271 44.0833 335.042 44.375 333.875 44.375C332.875 44.375 331.917 44.0833 331 43.5C330.083 42.875 329.479 42.1667 329.188 41.375C329.146 41.375 328.917 41.5208 328.5 41.8125C328.083 42.1042 327.771 42.3333 327.562 42.5C326.729 43.0417 325.771 43.5 324.688 43.875C323.604 44.25 322.479 44.4375 321.312 44.4375ZM325.25 39.9375C326.333 39.9375 327.167 39.6875 327.75 39.1875C328.375 38.6458 328.688 38 328.688 37.25V30.9375L325.438 32.0625C324.562 32.3542 323.75 32.7917 323 33.375C322.292 33.9583 321.938 34.7292 321.938 35.6875C321.938 37.1875 322.25 38.2708 322.875 38.9375C323.542 39.6042 324.333 39.9375 325.25 39.9375ZM350 44.5625C349.917 44.5625 349.708 44.4583 349.375 44.25C349.042 44.0833 348.729 43.875 348.438 43.625C348.146 43.375 348 43.1875 348 43.0625C348 42.8125 348.083 42.0625 348.25 40.8125C348.417 39.5625 348.5 37.9583 348.5 36V10.8125C348.5 9.0625 348.375 7.5625 348.125 6.3125C347.958 5.64583 346.875 5.3125 344.875 5.3125H344.312C344.062 5.3125 343.938 4.89583 343.938 4.0625C343.938 3.35417 344.062 3 344.312 3C346.729 2.79167 349 2.4375 351.125 1.9375C353.292 1.4375 354.833 1.04167 355.75 0.75L356.375 0.5625H356.5C356.667 0.5625 356.833 0.6875 357 0.9375C357.167 1.1875 357.271 1.41667 357.312 1.625C356.854 3.58333 356.625 5.6875 356.625 7.9375V17.0625C356.625 17.4792 356.646 17.75 356.688 17.875C356.729 17.9583 356.833 17.9583 357 17.875C358.542 16.6667 360.354 16.0625 362.438 16.0625C364.938 16.0625 367.229 16.6875 369.312 17.9375C371.396 19.1458 373.062 20.7917 374.312 22.875C375.562 24.9583 376.188 27.2917 376.188 29.875C376.188 32.625 375.521 35.1042 374.188 37.3125C372.896 39.5208 371.146 41.2708 368.938 42.5625C366.729 43.8542 364.25 44.5 361.5 44.5C360 44.5 358.812 44.3958 357.938 44.1875C357.104 44.0208 356.375 43.8542 355.75 43.6875C355.125 43.4792 354.354 43.375 353.438 43.375C352.812 43.375 352.167 43.5833 351.5 44C350.833 44.375 350.333 44.5625 350 44.5625ZM361.688 41.125C363.562 41.125 364.938 40.2917 365.812 38.625C366.729 36.9167 367.188 34.6875 367.188 31.9375C367.188 23.8958 365.375 19.875 361.75 19.875C360.125 19.875 358.854 20.3333 357.938 21.25C357.062 22.1667 356.625 23.125 356.625 24.125V35.9375C356.625 37.6042 357.104 38.8958 358.062 39.8125C359.021 40.6875 360.229 41.125 361.688 41.125ZM389.125 44.625C388.167 44.625 387.104 44.5208 385.938 44.3125C384.771 44.1042 383.688 43.8125 382.688 43.4375C381.688 43.0625 380.917 42.6667 380.375 42.25C379.875 39.375 379.625 36.8333 379.625 34.625C379.833 34.5 380.146 34.4375 380.562 34.4375C381.896 34.4375 382.583 34.625 382.625 35C383.333 39.125 385.583 41.1875 389.375 41.1875C390.375 41.1875 391.208 40.9583 391.875 40.5C392.542 40.0417 392.875 39.3542 392.875 38.4375C392.875 37.5625 392.521 36.8125 391.812 36.1875C391.104 35.5625 390.271 35 389.312 34.5C388.354 34 387.479 33.5417 386.688 33.125C384.271 31.9583 382.479 30.6875 381.312 29.3125C380.146 27.8958 379.562 26.1667 379.562 24.125C379.562 22.2083 380.062 20.6667 381.062 19.5C382.062 18.2917 383.396 17.3958 385.062 16.8125C386.729 16.2292 388.521 15.9375 390.438 15.9375C394.062 15.9375 396.771 16.3542 398.562 17.1875C398.979 19.0208 399.188 21.6042 399.188 24.9375C399.188 25.3125 398.917 25.5 398.375 25.5C397.083 25.5 396.396 25.3333 396.312 25C395.938 23.25 395.292 21.875 394.375 20.875C393.5 19.875 392.083 19.375 390.125 19.375C389.208 19.375 388.458 19.6042 387.875 20.0625C387.292 20.4792 387 21.1042 387 21.9375C387 22.8958 387.417 23.7292 388.25 24.4375C389.083 25.1042 390.312 25.8333 391.938 26.625C393.312 27.25 394.646 27.9792 395.938 28.8125C397.229 29.6042 398.271 30.6042 399.062 31.8125C399.896 32.9792 400.312 34.4583 400.312 36.25C400.312 39 399.25 41.0833 397.125 42.5C395.042 43.9167 392.375 44.625 389.125 44.625Z" fill="white"/>
</svg>
