<svg width="437" height="58" viewBox="0 0 437 58" fill="none" xmlns="http://www.w3.org/2000/svg">
<path d="M1.1875 44.25C1.02083 44.0833 0.9375 43.7292 0.9375 43.1875C0.9375 42.3958 1 42 1.125 42C1.625 42 2.35417 41.8542 3.3125 41.5625C4.3125 41.2708 5.22917 40.8958 6.0625 40.4375C6.9375 39.9375 7.39583 39.3958 7.4375 38.8125L7.6875 35.8125C8.14583 28.3542 8.41667 22.1458 8.5 17.1875C8.58333 12.2292 8.6875 8.9375 8.8125 7.3125C8.8125 6.85417 8.75 6.47917 8.625 6.1875C8.54167 5.9375 8.1875 5.72917 7.5625 5.5625C6.9375 5.35417 6.27083 5.1875 5.5625 5.0625C4.89583 4.9375 4.375 4.875 4 4.875C3.83333 4.875 3.75 4.4375 3.75 3.5625C3.75 3.10417 3.83333 2.79167 4 2.625C4.41667 2.625 5.04167 2.66667 5.875 2.75C6.75 2.79167 7.66667 2.85417 8.625 2.9375C9.625 2.97917 10.4792 3 11.1875 3C11.7708 3 12.5 2.97917 13.375 2.9375C14.2917 2.85417 15.1667 2.79167 16 2.75C16.8333 2.66667 17.4167 2.625 17.75 2.625C17.9583 3.29167 18.4792 4.60417 19.3125 6.5625C20.1875 8.52083 21.375 11.125 22.875 14.375C24.375 17.6667 25.6875 20.5833 26.8125 23.125C27.9375 25.625 28.8542 27.7917 29.5625 29.625H29.6875C29.7708 29.625 29.8125 29.6042 29.8125 29.5625C31.3958 25.6042 32.8333 21.9792 34.125 18.6875C35.4167 15.3958 36.5208 12.4583 37.4375 9.875L39.5 2.875C39.875 2.91667 40.4792 2.95833 41.3125 3C42.1875 3 43.2708 3 44.5625 3L52.4375 2.625C52.6042 2.83333 52.6875 3.16667 52.6875 3.625C52.6875 4.5 52.5833 4.9375 52.375 4.9375H52.3125C51.2708 4.9375 50.3958 5.1875 49.6875 5.6875C49.0208 6.14583 48.7292 7 48.8125 8.25L50.0625 34.5C50.1875 37 50.5 38.9167 51 40.25C51.125 40.5 51.4167 40.75 51.875 41C52.375 41.25 52.8958 41.4792 53.4375 41.6875C53.9792 41.8542 54.375 41.9375 54.625 41.9375C54.7917 41.9375 54.875 42.3542 54.875 43.1875C54.875 43.5625 54.8333 43.9167 54.75 44.25C54.4583 44.2083 53.8125 44.1458 52.8125 44.0625C51.8125 44.0208 50.75 43.9583 49.625 43.875C48.5 43.7917 47.5625 43.75 46.8125 43.75C46.0625 43.75 45.0417 43.7917 43.75 43.875C42.4583 43.9583 41.2292 44.0208 40.0625 44.0625C38.9375 44.1458 38.1667 44.2083 37.75 44.25C37.5417 44.0417 37.4375 43.7083 37.4375 43.25C37.4375 42.375 37.5 41.9375 37.625 41.9375C37.9583 41.9375 38.3958 41.8542 38.9375 41.6875C39.4792 41.4792 40 41.25 40.5 41C41.0417 40.7083 41.375 40.4375 41.5 40.1875C41.8333 39.5208 42 38.9375 42 38.4375C42 37.9792 41.9792 37.4375 41.9375 36.8125C41.9375 36.1875 41.9167 35.5 41.875 34.75L41.375 18.875C41.2083 16.0833 41.0417 14.6875 40.875 14.6875C40.7917 14.6875 40.6875 14.8333 40.5625 15.125L29.75 42.0625C29.5833 42.4792 29.25 42.9375 28.75 43.4375C28.25 43.8958 27.75 44.125 27.25 44.125C27.2083 44.125 27.0208 44.0833 26.6875 44L12.9375 13.125L11.875 37.1875C11.875 37.7708 11.875 38.25 11.875 38.625C11.875 39 11.8958 39.2708 11.9375 39.4375C12.0208 39.6875 12.3125 39.9583 12.8125 40.25C13.3542 40.5417 13.9792 40.8125 14.6875 41.0625C15.3958 41.3125 16.0625 41.5208 16.6875 41.6875C17.3542 41.8542 17.8125 41.9375 18.0625 41.9375C18.2292 41.9375 18.3125 42.3542 18.3125 43.1875C18.3125 43.5625 18.2708 43.9167 18.1875 44.25C15.6875 44.25 13.7917 44.2292 12.5 44.1875C11.25 44.1458 10.3542 44.1042 9.8125 44.0625C9.27083 44.0208 8.875 44 8.625 44C8.375 43.9583 8.0625 43.9375 7.6875 43.9375C7.3125 43.9375 6.64583 43.9583 5.6875 44C4.72917 44.0417 3.22917 44.125 1.1875 44.25ZM58.6875 44.25C58.5208 44.0833 58.4375 43.6875 58.4375 43.0625C58.4375 42.4375 58.5208 42.125 58.6875 42.125C59.0208 42.125 59.4583 42.0417 60 41.875C60.5417 41.7083 61.0625 41.5 61.5625 41.25C62.0625 41 62.3333 40.7708 62.375 40.5625C62.6667 39.3958 62.8125 37.8125 62.8125 35.8125V26.6875C62.8125 24.3542 62.4375 22.7917 61.6875 22C61.3542 21.5833 60.8958 21.2917 60.3125 21.125C59.7708 20.9583 59.2917 20.8542 58.875 20.8125C58.4583 20.7292 58.25 20.6458 58.25 20.5625C58.25 19.3542 58.3542 18.75 58.5625 18.75C58.9375 18.75 59.625 18.6667 60.625 18.5C61.625 18.3333 62.7292 18.125 63.9375 17.875C65.1875 17.625 66.3542 17.375 67.4375 17.125C68.5625 16.875 69.4167 16.6667 70 16.5L70.6875 16.3125C70.8958 16.3125 71.1042 16.4583 71.3125 16.75C71.5208 17 71.625 17.2083 71.625 17.375C71.4167 19.2083 71.25 20.6458 71.125 21.6875C71 22.7292 70.9375 23.375 70.9375 23.625V34.875C70.9375 37.25 71.1042 39.1458 71.4375 40.5625C71.5208 40.7292 71.7917 40.9375 72.25 41.1875C72.75 41.4375 73.2708 41.6667 73.8125 41.875C74.3542 42.0417 74.7292 42.125 74.9375 42.125C75.0625 42.125 75.125 42.4375 75.125 43.0625C75.1667 43.6875 75.1458 44.0833 75.0625 44.25C74.7292 44.2083 74.0208 44.1458 72.9375 44.0625C71.8958 44.0208 70.7917 43.9583 69.625 43.875C68.4583 43.7917 67.5417 43.75 66.875 43.75C66.2083 43.75 65.2917 43.7917 64.125 43.875C62.9583 43.9583 61.8542 44.0208 60.8125 44.0625C59.7708 44.1458 59.0625 44.2083 58.6875 44.25ZM66.5625 10.125C65.2708 10.125 64.1667 9.6875 63.25 8.8125C62.375 7.89583 61.9375 6.79167 61.9375 5.5C61.9375 4.20833 62.375 3.125 63.25 2.25C64.1667 1.33333 65.2708 0.875 66.5625 0.875C67.8542 0.875 68.9375 1.33333 69.8125 2.25C70.7292 3.125 71.1875 4.20833 71.1875 5.5C71.1875 6.79167 70.7292 7.89583 69.8125 8.8125C68.9375 9.6875 67.8542 10.125 66.5625 10.125ZM78.625 44.25C78.4583 44.0833 78.375 43.6458 78.375 42.9375C78.375 42.2708 78.4583 41.9375 78.625 41.9375C78.9583 41.9375 79.4167 41.8542 80 41.6875C80.625 41.4792 81.2083 41.25 81.75 41C82.3333 40.75 82.6458 40.5417 82.6875 40.375C82.9792 39.2083 83.125 37.625 83.125 35.625V27.0625C83.125 24.7292 82.75 23.1667 82 22.375C81.6667 21.9583 81.2083 21.6667 80.625 21.5C80.0833 21.3333 79.6042 21.2292 79.1875 21.1875C78.7708 21.1042 78.5625 21.0208 78.5625 20.9375C78.5625 19.4792 78.6667 18.75 78.875 18.75C79.9583 18.75 81.5 18.5208 83.5 18.0625C85.5 17.5625 87.7708 17.0417 90.3125 16.5L90.625 16.4375C90.6667 16.3958 90.75 16.375 90.875 16.375L91 16.3125C91.2083 16.3125 91.4167 16.4583 91.625 16.75C91.875 17 91.9792 17.2083 91.9375 17.375L91.6875 19.3125C91.6875 19.5208 91.7083 19.6458 91.75 19.6875C91.8333 19.6875 91.9792 19.5833 92.1875 19.375C94.4792 17.2083 97.375 16.125 100.875 16.125C103.292 16.125 105.25 17.1458 106.75 19.1875C108.292 21.2292 109.062 24.3333 109.062 28.5V34.6875C109.062 37.4375 109.208 39.3333 109.5 40.375C109.583 40.5417 109.896 40.75 110.438 41C110.979 41.25 111.542 41.4792 112.125 41.6875C112.75 41.8542 113.188 41.9375 113.438 41.9375C113.521 41.9375 113.583 42.1042 113.625 42.4375C113.667 42.7708 113.688 43.125 113.688 43.5C113.688 43.875 113.646 44.125 113.562 44.25C113.312 44.25 112.833 44.2083 112.125 44.125C111.417 44.0833 110.583 44.0417 109.625 44C108.708 43.9167 107.833 43.8542 107 43.8125C106.167 43.7708 105.5 43.75 105 43.75C104.333 43.75 103.396 43.7917 102.188 43.875C101.021 43.9583 99.8958 44.0208 98.8125 44.0625C97.7292 44.1458 97.0208 44.2083 96.6875 44.25C96.5208 44.0833 96.4375 43.6458 96.4375 42.9375C96.4375 42.2708 96.5208 41.9375 96.6875 41.9375C97.0208 41.9375 97.4583 41.8542 98 41.6875C98.5833 41.4792 99.125 41.25 99.625 41C100.167 40.75 100.458 40.5417 100.5 40.375C100.792 39.2083 100.938 37.625 100.938 35.625V30C100.938 26.9167 100.5 24.7292 99.625 23.4375C98.7917 22.1042 97.4375 21.4375 95.5625 21.4375C94.2708 21.4375 93.2292 21.6875 92.4375 22.1875C91.6458 22.6458 91.25 23.3125 91.25 24.1875V34.6875C91.25 37.4375 91.3958 39.3333 91.6875 40.375C91.7708 40.5417 92.0625 40.75 92.5625 41C93.0625 41.25 93.6042 41.4792 94.1875 41.6875C94.7708 41.8542 95.1667 41.9375 95.375 41.9375C95.4583 41.9375 95.5208 42.1042 95.5625 42.4375C95.6042 42.7708 95.625 43.125 95.625 43.5C95.625 43.875 95.5833 44.125 95.5 44.25C95.1667 44.2083 94.4583 44.1458 93.375 44.0625C92.2917 44.0208 91.1458 43.9583 89.9375 43.875C88.7708 43.7917 87.8542 43.75 87.1875 43.75C86.6875 43.75 86 43.7708 85.125 43.8125C84.2917 43.8542 83.4167 43.9167 82.5 44C81.5833 44.0417 80.7708 44.0833 80.0625 44.125C79.3542 44.2083 78.875 44.25 78.625 44.25ZM129.062 44.375C126.812 44.375 124.688 43.8125 122.688 42.6875C120.729 41.5625 119.125 39.9792 117.875 37.9375C116.667 35.8958 116.062 33.5 116.062 30.75C116.062 27.9583 116.708 25.4583 118 23.25C119.333 21.0417 121.125 19.2917 123.375 18C125.667 16.7083 128.229 16.0625 131.062 16.0625C132.812 16.0625 134.271 16.25 135.438 16.625C135.562 16.625 135.625 16.3333 135.625 15.75V10.8125C135.625 9.0625 135.5 7.5625 135.25 6.3125C135.083 5.64583 134 5.3125 132 5.3125H131.438C131.188 5.3125 131.062 4.89583 131.062 4.0625C131.062 3.35417 131.188 3 131.438 3C133.854 2.79167 136.125 2.4375 138.25 1.9375C140.417 1.4375 141.958 1.04167 142.875 0.75L143.5 0.5625H143.625C143.792 0.5625 143.958 0.6875 144.125 0.9375C144.292 1.1875 144.396 1.41667 144.438 1.625C143.979 3.58333 143.75 5.6875 143.75 7.9375V34.8125C143.75 35.7292 143.792 36.7292 143.875 37.8125C143.958 38.8542 144.146 39.5208 144.438 39.8125C144.771 40.0625 145.146 40.2083 145.562 40.25C145.979 40.25 146.521 40.2917 147.188 40.375L147.812 40.4375C147.938 40.4792 148 40.7292 148 41.1875C148 42.2292 147.875 42.75 147.625 42.75C146.583 42.7917 145.375 42.9167 144 43.125C142.667 43.3333 141.354 43.5417 140.062 43.75C138.771 43.9583 137.729 44.125 136.938 44.25L136 44.375C135.75 44.4167 135.625 44.0625 135.625 43.3125V42C135.625 41.6667 135.542 41.5833 135.375 41.75C133.625 43.5 131.521 44.375 129.062 44.375ZM130.688 40.5625C132.104 40.5625 133.271 40.1667 134.188 39.375C135.146 38.5417 135.625 37.5417 135.625 36.375V25C135.625 24.5 135.583 24.0208 135.5 23.5625C135.417 23.1042 135.229 22.5208 134.938 21.8125C134.646 21.1042 134.125 20.5417 133.375 20.125C132.667 19.6667 131.771 19.4375 130.688 19.4375C128.729 19.4375 127.292 20.2292 126.375 21.8125C125.5 23.3542 125.062 25.8333 125.062 29.25C125.062 36.7917 126.938 40.5625 130.688 40.5625ZM164.438 44.625C162.771 44.625 160.958 44.4792 159 44.1875C157.042 43.9375 154.896 43.5417 152.562 43C152.354 42.0833 152.125 40.9375 151.875 39.5625C151.667 38.1875 151.479 36.8542 151.312 35.5625C151.188 34.2292 151.125 33.25 151.125 32.625C151.25 32.2083 151.625 32 152.25 32C153.542 32 154.208 32.125 154.25 32.375C154.5 33.625 155.062 34.9375 155.938 36.3125C156.812 37.6458 157.875 38.7708 159.125 39.6875C160.417 40.6042 161.771 41.0625 163.188 41.0625C167.312 41.0625 169.375 38.7917 169.375 34.25C169.375 33.0417 168.896 31.9375 167.938 30.9375C167.021 29.9375 165.938 29.0417 164.688 28.25C163.479 27.4583 162.438 26.7708 161.562 26.1875L159.688 24.9375C158.271 23.9792 156.938 23 155.688 22C154.438 20.9583 153.417 19.7708 152.625 18.4375C151.875 17.0625 151.5 15.3958 151.5 13.4375C151.5 11.3125 152.146 9.39583 153.438 7.6875C154.729 5.97917 156.396 4.625 158.438 3.625C160.479 2.625 162.604 2.125 164.812 2.125C165.688 2.125 166.583 2.1875 167.5 2.3125C168.458 2.4375 169.271 2.5625 169.938 2.6875C171.188 2.9375 172.25 3.1875 173.125 3.4375C174.042 3.64583 174.771 3.79167 175.312 3.875C175.521 5.91667 175.688 7.79167 175.812 9.5C175.938 11.2083 176 12.7917 176 14.25C175.833 14.6667 175.521 14.875 175.062 14.875C173.812 14.875 173.167 14.7292 173.125 14.4375C172.958 13.0208 172.5 11.6458 171.75 10.3125C171 8.97917 170.042 7.875 168.875 7C167.708 6.08333 166.375 5.625 164.875 5.625C163.458 5.625 162.25 6.0625 161.25 6.9375C160.292 7.8125 159.812 9.20833 159.812 11.125C159.812 12.8333 160.562 14.3333 162.062 15.625C163.604 16.9167 165.583 18.3333 168 19.875L171.188 21.875C172.354 22.5833 173.458 23.375 174.5 24.25C175.542 25.0833 176.396 26.1875 177.062 27.5625C177.729 28.8958 178.062 30.7292 178.062 33.0625C178.062 35.2708 177.417 37.25 176.125 39C174.875 40.75 173.208 42.125 171.125 43.125C169.083 44.125 166.854 44.625 164.438 44.625ZM203.875 44.3125C203.625 44.3125 203.5 43.9375 203.5 43.1875V40.875C203.5 40.5417 203.417 40.4583 203.25 40.625C202.375 41.5417 201.083 42.375 199.375 43.125C197.708 43.875 195.896 44.25 193.938 44.25C192.312 44.25 190.875 43.75 189.625 42.75C188.417 41.75 187.479 40.4167 186.812 38.75C186.146 37.0417 185.812 35.1667 185.812 33.125V27.0625C185.812 24.7292 185.438 23.1667 184.688 22.375C184.354 21.9583 183.896 21.6667 183.312 21.5C182.771 21.3333 182.292 21.2292 181.875 21.1875C181.458 21.1042 181.25 21.0208 181.25 20.9375C181.25 19.4792 181.354 18.75 181.562 18.75C181.938 18.75 182.625 18.6667 183.625 18.5C184.667 18.3333 185.792 18.1458 187 17.9375C188.208 17.6875 189.354 17.4375 190.438 17.1875C191.562 16.8958 192.417 16.6667 193 16.5C193.125 16.4583 193.229 16.4167 193.312 16.375C193.438 16.3333 193.562 16.3125 193.688 16.3125C193.896 16.3125 194.104 16.4583 194.312 16.75C194.521 17 194.625 17.2083 194.625 17.375C194.417 19.2083 194.25 20.6458 194.125 21.6875C194 22.7292 193.938 23.375 193.938 23.625V30.3125C193.938 33.5625 194.354 35.8542 195.188 37.1875C196.021 38.4792 197.417 39.125 199.375 39.125C200.792 39.125 201.854 38.8125 202.562 38.1875C203.271 37.5208 203.625 36.7917 203.625 36V27.0625C203.625 24.7292 203.25 23.1667 202.5 22.375C202.167 21.9583 201.708 21.6667 201.125 21.5C200.583 21.3333 200.104 21.2292 199.688 21.1875C199.271 21.1042 199.062 21.0208 199.062 20.9375C199.062 19.4792 199.167 18.75 199.375 18.75C199.75 18.75 200.438 18.6667 201.438 18.5C202.479 18.3333 203.604 18.1458 204.812 17.9375C206.021 17.6875 207.167 17.4375 208.25 17.1875C209.375 16.8958 210.229 16.6667 210.812 16.5L211.5 16.3125C211.708 16.3125 211.917 16.4583 212.125 16.75C212.333 17 212.438 17.2083 212.438 17.375C212.229 19.2083 212.062 20.6458 211.938 21.6875C211.812 22.7292 211.75 23.3542 211.75 23.5625V35.8125C211.75 38.0208 211.958 39.3333 212.375 39.75C212.583 39.9583 212.917 40.125 213.375 40.25C213.833 40.3333 214.292 40.375 214.75 40.375H215.375C215.542 40.4167 215.625 40.5833 215.625 40.875C215.625 42.0833 215.5 42.6875 215.25 42.6875C212.667 42.9375 210.5 43.1875 208.75 43.4375C207.042 43.6875 205.708 43.9167 204.75 44.125L203.875 44.3125ZM218.938 57.625C218.771 57.4583 218.688 57.0417 218.688 56.375C218.688 55.6667 218.771 55.3125 218.938 55.3125C219.271 55.3125 219.75 55.2083 220.375 55C221 54.8333 221.583 54.625 222.125 54.375C222.667 54.125 222.958 53.9167 223 53.75C223.292 52.5833 223.438 51 223.438 49V27.0625C223.438 24.7292 223.062 23.1667 222.312 22.375C221.979 21.9583 221.521 21.6667 220.938 21.5C220.396 21.3333 219.917 21.2292 219.5 21.1875C219.083 21.1042 218.875 21.0208 218.875 20.9375C218.875 19.4792 218.979 18.75 219.188 18.75C220.479 18.75 221.958 18.6042 223.625 18.3125C225.292 17.9792 227.167 17.5208 229.25 16.9375C230.5 16.5208 231.188 16.3125 231.312 16.3125C231.562 16.3125 231.688 16.5833 231.688 17.125C231.688 17.25 231.667 17.4167 231.625 17.625C231.625 17.7917 231.604 18 231.562 18.25C233.354 16.8333 235.271 16.125 237.312 16.125C239.979 16.125 242.333 16.7708 244.375 18.0625C246.458 19.3125 248.083 20.9792 249.25 23.0625C250.458 25.1458 251.062 27.3958 251.062 29.8125C251.062 32.8958 250.375 35.5417 249 37.75C247.667 39.9167 245.812 41.5833 243.438 42.75C241.104 43.9167 238.438 44.5 235.438 44.5C234.438 44.5 233.604 44.3958 232.938 44.1875C232.271 44.0208 231.896 43.9375 231.812 43.9375C231.646 43.9375 231.562 44.2708 231.562 44.9375V48.0625C231.562 50.8125 231.708 52.7083 232 53.75C232.083 53.9167 232.396 54.125 232.938 54.375C233.479 54.625 234.042 54.8333 234.625 55C235.25 55.2083 235.688 55.3125 235.938 55.3125C236.021 55.3125 236.083 55.4792 236.125 55.8125C236.167 56.1458 236.188 56.5 236.188 56.875C236.188 57.25 236.146 57.5 236.062 57.625C235.812 57.625 235.333 57.5833 234.625 57.5C233.917 57.4583 233.083 57.3958 232.125 57.3125C231.208 57.2708 230.333 57.2292 229.5 57.1875C228.667 57.1458 228 57.125 227.5 57.125C227 57.125 226.312 57.1458 225.438 57.1875C224.604 57.2292 223.729 57.2708 222.812 57.3125C221.896 57.3958 221.083 57.4583 220.375 57.5C219.667 57.5833 219.188 57.625 218.938 57.625ZM236.438 41.125C240.188 41.125 242.062 38.0417 242.062 31.875C242.062 23.7917 240.167 19.75 236.375 19.75C234.917 19.75 233.75 20.1875 232.875 21.0625C232 21.9375 231.562 23.0417 231.562 24.375V36.1875C231.562 37.7708 232.083 39 233.125 39.875C234.167 40.7083 235.271 41.125 236.438 41.125ZM254.375 57.625C254.208 57.4583 254.125 57.0417 254.125 56.375C254.125 55.6667 254.208 55.3125 254.375 55.3125C254.708 55.3125 255.188 55.2083 255.812 55C256.438 54.8333 257.021 54.625 257.562 54.375C258.104 54.125 258.396 53.9167 258.438 53.75C258.729 52.5833 258.875 51 258.875 49V27.0625C258.875 24.7292 258.5 23.1667 257.75 22.375C257.417 21.9583 256.958 21.6667 256.375 21.5C255.833 21.3333 255.354 21.2292 254.938 21.1875C254.521 21.1042 254.312 21.0208 254.312 20.9375C254.312 19.4792 254.417 18.75 254.625 18.75C255.917 18.75 257.396 18.6042 259.062 18.3125C260.729 17.9792 262.604 17.5208 264.688 16.9375C265.938 16.5208 266.625 16.3125 266.75 16.3125C267 16.3125 267.125 16.5833 267.125 17.125C267.125 17.25 267.104 17.4167 267.062 17.625C267.062 17.7917 267.042 18 267 18.25C268.792 16.8333 270.708 16.125 272.75 16.125C275.417 16.125 277.771 16.7708 279.812 18.0625C281.896 19.3125 283.521 20.9792 284.688 23.0625C285.896 25.1458 286.5 27.3958 286.5 29.8125C286.5 32.8958 285.812 35.5417 284.438 37.75C283.104 39.9167 281.25 41.5833 278.875 42.75C276.542 43.9167 273.875 44.5 270.875 44.5C269.875 44.5 269.042 44.3958 268.375 44.1875C267.708 44.0208 267.333 43.9375 267.25 43.9375C267.083 43.9375 267 44.2708 267 44.9375V48.0625C267 50.8125 267.146 52.7083 267.438 53.75C267.521 53.9167 267.833 54.125 268.375 54.375C268.917 54.625 269.479 54.8333 270.062 55C270.688 55.2083 271.125 55.3125 271.375 55.3125C271.458 55.3125 271.521 55.4792 271.562 55.8125C271.604 56.1458 271.625 56.5 271.625 56.875C271.625 57.25 271.583 57.5 271.5 57.625C271.25 57.625 270.771 57.5833 270.062 57.5C269.354 57.4583 268.521 57.3958 267.562 57.3125C266.646 57.2708 265.771 57.2292 264.938 57.1875C264.104 57.1458 263.438 57.125 262.938 57.125C262.438 57.125 261.75 57.1458 260.875 57.1875C260.042 57.2292 259.167 57.2708 258.25 57.3125C257.333 57.3958 256.521 57.4583 255.812 57.5C255.104 57.5833 254.625 57.625 254.375 57.625ZM271.875 41.125C275.625 41.125 277.5 38.0417 277.5 31.875C277.5 23.7917 275.604 19.75 271.812 19.75C270.354 19.75 269.188 20.1875 268.312 21.0625C267.438 21.9375 267 23.0417 267 24.375V36.1875C267 37.7708 267.521 39 268.562 39.875C269.604 40.7083 270.708 41.125 271.875 41.125ZM304.375 44.4375C301.667 44.4375 299.188 43.8125 296.938 42.5625C294.729 41.2708 292.958 39.5625 291.625 37.4375C290.333 35.2708 289.688 32.875 289.688 30.25C289.688 27.5833 290.333 25.1875 291.625 23.0625C292.958 20.9375 294.729 19.25 296.938 18C299.188 16.7083 301.667 16.0625 304.375 16.0625C307.125 16.0625 309.604 16.7083 311.812 18C314.021 19.25 315.771 20.9375 317.062 23.0625C318.396 25.1875 319.062 27.5833 319.062 30.25C319.062 32.875 318.417 35.2708 317.125 37.4375C315.833 39.5625 314.062 41.2708 311.812 42.5625C309.604 43.8125 307.125 44.4375 304.375 44.4375ZM305 41C306.167 41 307.125 40.6042 307.875 39.8125C308.625 39.0208 309.167 37.9792 309.5 36.6875C309.875 35.3542 310.062 33.9375 310.062 32.4375C310.062 23.8125 307.875 19.5 303.5 19.5C302.333 19.5 301.375 19.9167 300.625 20.75C299.917 21.5833 299.396 22.6667 299.062 24C298.729 25.3333 298.562 26.7708 298.562 28.3125C298.562 36.7708 300.708 41 305 41ZM322.688 44.25C322.521 44.0833 322.438 43.6458 322.438 42.9375C322.438 42.2708 322.521 41.9375 322.688 41.9375C323.021 41.9375 323.5 41.8542 324.125 41.6875C324.75 41.4792 325.333 41.25 325.875 41C326.417 40.75 326.708 40.5417 326.75 40.375C327.042 39.2083 327.188 37.625 327.188 35.625V27.0625C327.188 24.7292 326.812 23.1667 326.062 22.375C325.729 21.9583 325.271 21.6667 324.688 21.5C324.146 21.3333 323.667 21.2292 323.25 21.1875C322.833 21.1042 322.625 21.0208 322.625 20.9375C322.625 19.4792 322.729 18.75 322.938 18.75C324.021 18.75 325.521 18.5208 327.438 18.0625C329.396 17.5625 331.458 17.0833 333.625 16.625L335.062 16.3125C335.271 16.3125 335.479 16.4583 335.688 16.75C335.896 17 336 17.2083 336 17.375C335.958 17.625 335.896 18.125 335.812 18.875C335.771 19.625 335.729 20.0417 335.688 20.125C337.771 17.4167 340.125 16.0625 342.75 16.0625C344.625 16.0625 346.417 16.8333 348.125 18.375C348.125 20.5417 347.854 22.1458 347.312 23.1875C346.812 24.2292 345.875 24.75 344.5 24.75C343.667 24.75 342.708 24.2708 341.625 23.3125C340.542 22.3542 339.583 21.875 338.75 21.875C337.917 21.875 337.25 22.2083 336.75 22.875C336.25 23.5 335.875 24.3125 335.625 25.3125C335.417 26.3125 335.312 27.3542 335.312 28.4375V34.75C335.312 37.4583 335.458 39.3333 335.75 40.375C335.833 40.5417 336.125 40.75 336.625 41C337.125 41.25 337.667 41.4792 338.25 41.6875C338.833 41.8542 339.229 41.9375 339.438 41.9375C339.521 41.9375 339.583 42.1042 339.625 42.4375C339.667 42.7708 339.688 43.125 339.688 43.5C339.688 43.875 339.646 44.125 339.562 44.25C339.229 44.2083 338.521 44.1458 337.438 44.0625C336.354 44.0208 335.208 43.9583 334 43.875C332.833 43.7917 331.917 43.75 331.25 43.75C330.75 43.75 330.062 43.7708 329.188 43.8125C328.354 43.8542 327.479 43.9167 326.562 44C325.646 44.0417 324.833 44.0833 324.125 44.125C323.417 44.2083 322.938 44.25 322.688 44.25ZM363.688 44.4375C361.396 44.4375 359.417 43.7292 357.75 42.3125C356.125 40.8542 355.312 38.5208 355.312 35.3125V20.875H351.25C350.917 20.875 350.75 20.2292 350.75 18.9375C350.75 18.6458 350.792 18.4167 350.875 18.25C352.042 17.6667 353.083 17.1042 354 16.5625C354.958 15.9792 355.792 15.4167 356.5 14.875C358.333 13.4167 359.667 12.3125 360.5 11.5625C361.333 10.8125 361.771 10.4167 361.812 10.375C362.146 10.375 362.5 10.4583 362.875 10.625C363.25 10.75 363.438 10.8958 363.438 11.0625V17.1875H370.188C370.521 17.1875 370.688 17.3958 370.688 17.8125C370.688 19.0625 370.479 20.0833 370.062 20.875H363.438V35.6875C363.438 38.8542 364.562 40.4375 366.812 40.4375C367.979 40.4375 368.792 40.2917 369.25 40C369.75 39.6667 370.083 39.5 370.25 39.5C370.417 39.5 370.583 39.7083 370.75 40.125C370.958 40.5417 371.062 40.8542 371.062 41.0625C371.062 41.3958 370.646 41.8333 369.812 42.375C369.021 42.9167 368.042 43.3958 366.875 43.8125C365.75 44.2292 364.688 44.4375 363.688 44.4375ZM373.562 44.25C373.396 44.0833 373.312 43.7708 373.312 43.3125C373.312 42.4375 373.354 42 373.438 42C373.771 42 374.271 41.8958 374.938 41.6875C375.604 41.4792 376.25 41.2292 376.875 40.9375C377.542 40.6042 377.958 40.2917 378.125 40C378.458 39.5 378.812 38.8958 379.188 38.1875C379.562 37.4375 379.833 36.8333 380 36.375L380.312 35.625L394.125 3.875C394.583 2.79167 395.354 2.25 396.438 2.25C397.062 2.25 397.562 2.52083 397.938 3.0625L410.75 34.75C411.125 35.7083 411.479 36.625 411.812 37.5C412.188 38.3333 412.521 39.125 412.812 39.875C412.979 40.2917 413.354 40.6667 413.938 41C414.521 41.2917 415.146 41.5208 415.812 41.6875C416.521 41.8542 417.062 41.9375 417.438 41.9375C417.604 41.9375 417.688 42.2917 417.688 43C417.688 43.6667 417.646 44.0833 417.562 44.25L413.75 44C412.542 43.9167 411.5 43.8542 410.625 43.8125C409.75 43.7292 409.042 43.7083 408.5 43.75L399.062 44.25C398.896 44.0833 398.812 43.6458 398.812 42.9375C398.812 42.2708 398.896 41.9375 399.062 41.9375C399.979 41.9375 400.917 41.75 401.875 41.375C402.833 40.9583 403.312 40.4167 403.312 39.75C403.312 39.7083 403.188 39.3333 402.938 38.625C402.729 37.9167 402.333 36.8958 401.75 35.5625L399.875 31C399.708 30.8333 399.562 30.75 399.438 30.75C399.021 30.7083 398.312 30.6875 397.312 30.6875C396.312 30.6875 395.021 30.6875 393.438 30.6875C392.062 30.6875 390.833 30.6875 389.75 30.6875C388.708 30.6875 387.833 30.7083 387.125 30.75C386.958 30.75 386.812 30.8542 386.688 31.0625L384.625 35.8125C383.917 37.4792 383.5 38.6875 383.375 39.4375C383.292 40.1875 383.667 40.7708 384.5 41.1875C385.25 41.5625 385.896 41.7917 386.438 41.875C387.021 41.9167 387.521 41.9375 387.938 41.9375C388.062 41.9792 388.125 42.3125 388.125 42.9375C388.125 43.4792 388.083 43.9167 388 44.25C386.125 44.125 384.75 44.0208 383.875 43.9375C383.042 43.8542 382.417 43.8125 382 43.8125C381.583 43.7708 381.125 43.7708 380.625 43.8125C380.167 43.8542 379.417 43.9167 378.375 44C377.333 44.0417 375.729 44.125 373.562 44.25ZM393.438 26.9375C394.271 26.9375 395.042 26.9375 395.75 26.9375C396.5 26.8958 397.208 26.8542 397.875 26.8125L398.062 26.5L393.562 15.3125L388.688 26.5C388.688 26.6667 388.729 26.75 388.812 26.75C390.062 26.875 391.604 26.9375 393.438 26.9375ZM419.625 44.25C419.458 44.0833 419.375 43.6875 419.375 43.0625C419.375 42.4375 419.458 42.125 419.625 42.125C419.958 42.125 420.396 42.0417 420.938 41.875C421.479 41.7083 422 41.5 422.5 41.25C423 41 423.271 40.7708 423.312 40.5625C423.604 39.3958 423.75 37.8125 423.75 35.8125V26.6875C423.75 24.3542 423.375 22.7917 422.625 22C422.292 21.5833 421.833 21.2917 421.25 21.125C420.708 20.9583 420.229 20.8542 419.812 20.8125C419.396 20.7292 419.188 20.6458 419.188 20.5625C419.188 19.3542 419.292 18.75 419.5 18.75C419.875 18.75 420.562 18.6667 421.562 18.5C422.562 18.3333 423.667 18.125 424.875 17.875C426.125 17.625 427.292 17.375 428.375 17.125C429.5 16.875 430.354 16.6667 430.938 16.5L431.625 16.3125C431.833 16.3125 432.042 16.4583 432.25 16.75C432.458 17 432.562 17.2083 432.562 17.375C432.354 19.2083 432.188 20.6458 432.062 21.6875C431.938 22.7292 431.875 23.375 431.875 23.625V34.875C431.875 37.25 432.042 39.1458 432.375 40.5625C432.458 40.7292 432.729 40.9375 433.188 41.1875C433.688 41.4375 434.208 41.6667 434.75 41.875C435.292 42.0417 435.667 42.125 435.875 42.125C436 42.125 436.062 42.4375 436.062 43.0625C436.104 43.6875 436.083 44.0833 436 44.25C435.667 44.2083 434.958 44.1458 433.875 44.0625C432.833 44.0208 431.729 43.9583 430.562 43.875C429.396 43.7917 428.479 43.75 427.812 43.75C427.146 43.75 426.229 43.7917 425.062 43.875C423.896 43.9583 422.792 44.0208 421.75 44.0625C420.708 44.1458 420 44.2083 419.625 44.25ZM427.5 10.125C426.208 10.125 425.104 9.6875 424.188 8.8125C423.312 7.89583 422.875 6.79167 422.875 5.5C422.875 4.20833 423.312 3.125 424.188 2.25C425.104 1.33333 426.208 0.875 427.5 0.875C428.792 0.875 429.875 1.33333 430.75 2.25C431.667 3.125 432.125 4.20833 432.125 5.5C432.125 6.79167 431.667 7.89583 430.75 8.8125C429.875 9.6875 428.792 10.125 427.5 10.125Z" fill="white"/>
</svg>
